<svg width="575" height="330" viewBox="0 0 575 330" fill="none" xmlns="http://www.w3.org/2000/svg">
<path d="M382.282 47.136C382.282 54.7293 380.317 61.6973 376.386 68.04C372.455 74.3827 366.738 79.564 359.234 83.584C351.73 87.604 342.797 89.9713 332.434 90.686L326.672 122.98C324.439 135.397 318.364 141.606 308.448 141.606C302.999 141.606 297.951 139.998 293.306 136.782C288.75 133.566 285.087 128.653 282.318 122.042C279.549 115.431 278.164 107.302 278.164 97.654C278.164 79.5193 281.067 64.154 286.874 51.558C292.77 38.8727 300.631 29.4033 310.458 23.15C320.374 16.8073 331.273 13.636 343.154 13.636C351.551 13.636 358.653 15.11 364.46 18.058C370.356 21.006 374.778 25.026 377.726 30.118C380.763 35.1207 382.282 40.7933 382.282 47.136ZM334.846 76.884C353.159 74.5613 362.316 65.0473 362.316 48.342C362.316 42.446 360.351 37.6667 356.42 34.004C352.579 30.252 346.593 28.376 338.464 28.376C329.263 28.376 321.223 31.2793 314.344 37.086C307.555 42.8927 302.284 50.9773 298.532 61.34C294.869 71.6133 293.038 83.3607 293.038 96.582C293.038 102.121 293.574 107.034 294.646 111.322C295.807 115.61 297.237 118.96 298.934 121.372C300.721 123.695 302.418 124.856 304.026 124.856C306.259 124.856 307.957 121.774 309.118 115.61L313.54 90.284C310.056 89.748 308.537 89.5247 308.984 89.614C306.304 89.1673 304.562 88.3633 303.758 87.202C302.954 85.9513 302.552 84.388 302.552 82.512C302.552 80.5467 303.088 78.9833 304.16 77.822C305.321 76.6607 306.885 76.08 308.85 76.08C309.743 76.08 310.413 76.1247 310.86 76.214C313.004 76.5713 314.657 76.7947 315.818 76.884C316.979 69.916 318.632 60.5807 320.776 48.878C321.312 45.8407 322.518 43.6967 324.394 42.446C326.359 41.106 328.637 40.436 331.228 40.436C334.176 40.436 336.275 41.0167 337.526 42.178C338.866 43.25 339.536 44.992 339.536 47.404C339.536 48.8333 339.447 49.9947 339.268 50.888L334.846 76.884ZM439.35 97.118C440.512 97.118 441.405 97.654 442.03 98.726C442.745 99.798 443.102 101.272 443.102 103.148C443.102 106.721 442.254 109.491 440.556 111.456C437.251 115.476 432.561 119.183 426.486 122.578C420.501 125.973 414.069 127.67 407.19 127.67C397.81 127.67 390.53 125.124 385.348 120.032C380.167 114.94 377.576 107.972 377.576 99.128C377.576 92.964 378.872 87.2467 381.462 81.976C384.053 76.616 387.626 72.3727 392.182 69.246C396.828 66.1193 402.054 64.556 407.86 64.556C413.042 64.556 417.196 66.1193 420.322 69.246C423.449 72.2833 425.012 76.4373 425.012 81.708C425.012 87.872 422.779 93.1873 418.312 97.654C413.935 102.031 406.476 105.515 395.934 108.106C398.168 112.215 402.411 114.27 408.664 114.27C412.684 114.27 417.24 112.885 422.332 110.116C427.514 107.257 431.98 103.55 435.732 98.994C436.804 97.7433 438.01 97.118 439.35 97.118ZM405.582 77.688C402.277 77.688 399.463 79.6087 397.14 83.45C394.907 87.2913 393.79 91.9367 393.79 97.386V97.654C399.061 96.4033 403.215 94.5273 406.252 92.026C409.29 89.5247 410.808 86.6213 410.808 83.316C410.808 81.6187 410.317 80.2787 409.334 79.296C408.441 78.224 407.19 77.688 405.582 77.688ZM454.302 77.286C454.123 81.7527 454.034 85.2367 454.034 87.738C454.034 94.17 454.346 99.2173 454.972 102.88C455.686 106.453 456.803 109.044 458.322 110.652C459.93 112.171 462.118 112.93 464.888 112.93C466.317 112.93 468.014 112.483 469.98 111.59C471.945 110.697 473.732 109.535 475.34 108.106C476.322 107.213 477.305 106.766 478.288 106.766C479.36 106.766 480.208 107.391 480.834 108.642C481.548 109.803 481.906 111.233 481.906 112.93C481.906 114.627 481.548 116.28 480.834 117.888C480.208 119.496 479.226 120.836 477.886 121.908C473.24 125.749 467.97 127.67 462.074 127.67C453.587 127.67 447.378 124.141 443.448 117.084C439.517 109.937 437.552 100.647 437.552 89.212C437.552 85.2813 437.686 81.306 437.954 77.286H432.728C430.048 77.286 428.216 76.7947 427.234 75.812C426.34 74.8293 425.894 73.266 425.894 71.122C425.894 66.1193 427.904 63.618 431.924 63.618H439.562C441.08 53.7913 443.403 44.8133 446.53 36.684C449.656 28.5547 453.408 22.078 457.786 17.254C462.252 12.43 467.032 10.018 472.124 10.018C475.876 10.018 478.824 11.6707 480.968 14.976C483.112 18.2813 484.184 22.4353 484.184 27.438C484.184 41.2847 478.377 53.3447 466.764 63.618H481.772C483.201 63.618 484.228 63.9307 484.854 64.556C485.479 65.1813 485.792 66.3427 485.792 68.04C485.792 74.204 480.744 77.286 470.65 77.286H454.302ZM468.506 22.882C467.166 22.882 465.647 24.5793 463.95 27.974C462.342 31.2793 460.778 35.9247 459.26 41.91C457.83 47.806 456.624 54.372 455.642 61.608C460.912 57.052 464.843 51.96 467.434 46.332C470.114 40.6147 471.454 35.4333 471.454 30.788C471.454 25.5173 470.471 22.882 468.506 22.882ZM315.818 269.072C303.937 269.072 294.423 266.839 287.276 262.372C280.129 257.816 276.556 250.893 276.556 241.602C276.556 236.689 277.405 232.937 279.102 230.346C280.799 227.755 283.301 226.46 286.606 226.46C289.018 226.46 290.983 227.085 292.502 228.336C294.021 229.587 294.78 231.195 294.78 233.16C294.78 234.947 294.646 236.51 294.378 237.85C294.378 238.207 294.289 238.833 294.11 239.726C294.021 240.619 293.976 241.557 293.976 242.54C293.976 246.56 295.986 249.553 300.006 251.518C304.115 253.483 309.833 254.466 317.158 254.466C324.751 254.466 330.692 253.126 334.98 250.446C339.268 247.677 341.412 243.835 341.412 238.922C341.412 235.885 340.429 233.294 338.464 231.15C336.499 228.917 334.042 227.085 331.094 225.656C328.146 224.137 323.992 222.306 318.632 220.162C311.753 217.482 306.125 214.936 301.748 212.524C297.46 210.112 293.753 206.851 290.626 202.742C287.589 198.543 286.07 193.362 286.07 187.198C286.07 180.766 287.767 175.049 291.162 170.046C294.646 165.043 299.604 161.157 306.036 158.388C312.557 155.619 320.195 154.234 328.95 154.234C335.471 154.234 341.457 155.217 346.906 157.182C352.355 159.058 356.688 161.961 359.904 165.892C363.209 169.823 364.862 174.647 364.862 180.364C364.862 185.992 364.013 190.235 362.316 193.094C360.619 195.953 358.117 197.382 354.812 197.382C352.489 197.382 350.524 196.667 348.916 195.238C347.397 193.809 346.638 192.111 346.638 190.146C346.638 188.449 346.772 186.885 347.04 185.456C347.308 182.776 347.442 181.079 347.442 180.364C347.442 176.612 345.611 173.753 341.948 171.788C338.285 169.823 333.729 168.84 328.28 168.84C320.597 168.84 314.701 170.269 310.592 173.128C306.572 175.897 304.562 179.828 304.562 184.92C304.562 188.315 305.589 191.218 307.644 193.63C309.788 196.042 312.423 198.052 315.55 199.66C318.677 201.268 323.054 203.189 328.682 205.422C335.471 208.191 340.921 210.693 345.03 212.926C349.139 215.159 352.623 218.197 355.482 222.038C358.43 225.879 359.904 230.614 359.904 236.242C359.904 246.783 355.884 254.913 347.844 260.63C339.893 266.258 329.218 269.072 315.818 269.072ZM444.404 238.118C445.565 238.118 446.458 238.654 447.084 239.726C447.798 240.798 448.156 242.272 448.156 244.148C448.156 247.721 447.307 250.491 445.61 252.456C441.5 257.191 437.257 261.077 432.88 264.114C428.592 267.151 423.678 268.67 418.14 268.67C413.584 268.67 410.144 267.375 407.822 264.784C405.499 262.104 404.338 258.263 404.338 253.26C404.338 250.759 404.963 246.292 406.214 239.86C407.375 234.232 407.956 230.346 407.956 228.202C407.956 226.773 407.464 226.058 406.482 226.058C405.32 226.058 403.668 227.577 401.524 230.614C399.38 233.562 397.236 237.493 395.092 242.406C392.948 247.319 391.206 252.501 389.866 257.95C388.168 265.097 383.97 268.67 377.27 268.67C374.59 268.67 372.803 267.732 371.91 265.856C371.106 263.891 370.704 260.407 370.704 255.404C370.704 252.545 370.748 250.267 370.838 248.57L370.972 237.85C370.972 224.093 372.356 209.755 375.126 194.836C377.984 179.917 382.138 167.411 387.588 157.316C393.126 147.132 399.737 142.04 407.42 142.04C411.529 142.04 414.834 143.827 417.336 147.4C419.926 150.884 421.222 155.44 421.222 161.068C421.222 170.091 418.586 179.471 413.316 189.208C408.045 198.856 399.469 210.157 387.588 223.11C387.32 227.755 387.186 232.535 387.186 237.448C390.134 229.855 393.394 223.691 396.968 218.956C400.63 214.132 404.204 210.693 407.688 208.638C411.261 206.583 414.522 205.556 417.47 205.556C423.276 205.556 426.18 208.459 426.18 214.266C426.18 217.75 425.197 224.048 423.232 233.16C421.534 240.932 420.686 246.069 420.686 248.57C420.686 252.143 421.981 253.93 424.572 253.93C426.358 253.93 428.458 252.858 430.87 250.714C433.371 248.481 436.676 244.907 440.786 239.994C441.858 238.743 443.064 238.118 444.404 238.118ZM404.606 155.306C402.998 155.306 401.211 157.629 399.246 162.274C397.28 166.83 395.36 173.039 393.484 180.9C391.697 188.672 390.223 197.159 389.062 206.36C394.6 199.839 399.156 192.737 402.73 185.054C406.392 177.371 408.224 170.403 408.224 164.15C408.224 161.291 407.911 159.103 407.286 157.584C406.66 156.065 405.767 155.306 404.606 155.306ZM505.635 226.862C506.797 226.862 507.69 227.443 508.315 228.604C508.941 229.765 509.253 231.239 509.253 233.026C509.253 237.314 507.958 239.86 505.367 240.664C500.007 242.54 494.111 243.612 487.679 243.88C485.982 251.384 482.632 257.414 477.629 261.97C472.627 266.437 466.954 268.67 460.611 268.67C455.251 268.67 450.651 267.375 446.809 264.784C443.057 262.193 440.199 258.754 438.233 254.466C436.268 250.178 435.285 245.533 435.285 240.53C435.285 233.741 436.581 227.711 439.171 222.44C441.762 217.08 445.335 212.926 449.891 209.978C454.447 206.941 459.495 205.422 465.033 205.422C471.823 205.422 477.272 207.789 481.381 212.524C485.58 217.169 488.037 222.931 488.751 229.81C492.95 229.542 497.953 228.649 503.759 227.13C504.474 226.951 505.099 226.862 505.635 226.862ZM461.683 254.466C464.542 254.466 466.999 253.305 469.053 250.982C471.197 248.659 472.627 245.309 473.341 240.932C470.572 239.056 468.428 236.599 466.909 233.562C465.48 230.525 464.765 227.309 464.765 223.914C464.765 222.485 464.899 221.055 465.167 219.626H464.497C460.924 219.626 457.931 221.368 455.519 224.852C453.197 228.247 452.035 233.071 452.035 239.324C452.035 244.237 452.973 247.989 454.849 250.58C456.815 253.171 459.093 254.466 461.683 254.466ZM550.816 227.13C550.816 234.187 549.164 240.887 545.858 247.23C542.642 253.483 538.31 258.575 532.86 262.506C527.5 266.437 521.738 268.491 515.574 268.67C514.413 285.911 511.778 300.294 507.668 311.818C503.559 323.431 497.529 329.238 489.578 329.238C484.754 329.238 481.181 327.496 478.858 324.012C476.536 320.528 475.374 315.704 475.374 309.54C475.374 300.785 477.384 290.557 481.404 278.854C485.424 267.241 491.633 254.421 500.03 240.396C500.03 227.353 499.941 218.286 499.762 213.194C499.673 210.603 500.7 208.549 502.844 207.03C504.988 205.511 507.668 204.752 510.884 204.752C512.76 204.752 514.1 205.154 514.904 205.958C515.798 206.673 516.289 208.147 516.378 210.38C516.378 212.613 516.423 214.266 516.512 215.338C519.371 211.765 522.185 209.219 524.954 207.7C527.724 206.092 530.672 205.288 533.798 205.288C538.801 205.288 542.866 207.298 545.992 211.318C549.208 215.338 550.816 220.609 550.816 227.13ZM516.244 255.806C519.46 255.091 522.408 253.349 525.088 250.58C527.858 247.721 530.046 244.237 531.654 240.128C533.262 235.929 534.066 231.552 534.066 226.996C534.066 224.316 533.53 222.306 532.458 220.966C531.386 219.537 529.957 218.822 528.17 218.822C524.954 218.822 521.068 222.217 516.512 229.006C516.423 232.937 516.378 238.699 516.378 246.292C516.378 250.401 516.334 253.573 516.244 255.806ZM490.65 316.106C493.062 316.106 495.072 310.835 496.68 300.294C498.288 289.842 499.316 276.799 499.762 261.166C495.921 270.099 492.884 278.631 490.65 286.76C488.417 294.889 487.3 301.723 487.3 307.262C487.3 310.121 487.658 312.309 488.372 313.828C488.998 315.347 489.757 316.106 490.65 316.106Z" fill="white"/>
<path fill-rule="evenodd" clip-rule="evenodd" d="M538.289 94.5655C536.505 92.7832 534.086 91.7821 531.564 91.7821C529.043 91.7821 526.624 92.7832 524.84 94.5655C521.787 97.6185 520.229 103.112 521.314 107.046C521.798 108.793 522.131 110.889 521.943 113.007C521.755 115.141 521.008 117.544 519.094 119.457L488.457 150.094C486.544 152.008 484.141 152.755 482.007 152.943C479.997 153.087 477.977 152.874 476.041 152.314C472.106 151.229 466.618 152.787 463.571 155.84C462.652 156.715 461.918 157.764 461.411 158.926C460.903 160.088 460.634 161.341 460.618 162.609C460.602 163.877 460.84 165.135 461.318 166.31C461.795 167.485 462.503 168.552 463.399 169.449C464.296 170.346 465.363 171.055 466.537 171.533C467.711 172.012 468.97 172.251 470.238 172.236C471.506 172.221 472.758 171.953 473.921 171.446C475.084 170.94 476.133 170.207 477.008 169.289C477.382 168.914 477.827 168.616 478.316 168.413C478.805 168.21 479.329 168.105 479.859 168.105C480.388 168.104 480.913 168.208 481.402 168.41C481.892 168.612 482.336 168.909 482.711 169.283C483.086 169.657 483.383 170.102 483.587 170.591C483.79 171.08 483.894 171.604 483.895 172.133C483.895 172.663 483.792 173.188 483.589 173.677C483.387 174.166 483.091 174.611 482.717 174.986C481.813 175.864 481.093 176.913 480.599 178.072C480.104 179.23 479.845 180.476 479.836 181.736C479.827 182.996 480.068 184.245 480.546 185.41C481.024 186.576 481.729 187.635 482.619 188.526C483.51 189.417 484.569 190.122 485.734 190.6C486.9 191.079 488.149 191.321 489.409 191.312C490.668 191.304 491.914 191.045 493.073 190.551C494.232 190.057 495.281 189.337 496.159 188.434C499.212 185.381 500.771 179.888 499.685 175.954C499.126 174.019 498.913 172.001 499.057 169.993C499.245 167.859 499.992 165.456 501.905 163.543L532.543 132.905C534.456 130.992 536.859 130.245 538.993 130.057C541.003 129.913 543.023 130.126 544.959 130.685C548.893 131.771 554.381 130.212 557.429 127.159C559.078 125.351 559.967 122.977 559.911 120.531C559.856 118.084 558.859 115.753 557.129 114.022C555.399 112.291 553.068 111.294 550.621 111.237C548.175 111.18 545.8 112.068 543.991 113.717C543.235 114.474 542.209 114.899 541.139 114.9C540.069 114.9 539.043 114.475 538.286 113.719C537.529 112.963 537.103 111.937 537.103 110.867C537.102 109.797 537.527 108.771 538.283 108.014C539.166 107.131 539.867 106.082 540.345 104.929C540.823 103.775 541.069 102.538 541.069 101.29C541.069 100.041 540.823 98.8042 540.345 97.6504C539.867 96.4967 539.172 95.4484 538.289 94.5655ZM549.055 102.945C549.393 99.3456 548.613 95.7294 546.821 92.5894C545.029 89.4493 542.312 86.9383 539.041 85.3986C535.77 83.8588 532.104 83.3653 528.542 83.9852C524.98 84.6051 521.696 86.3083 519.137 88.8626C514.198 93.8076 511.623 102.241 513.548 109.196C513.859 110.325 513.994 111.421 513.913 112.298C513.838 113.158 513.59 113.555 513.392 113.76L482.754 144.397C482.555 144.596 482.158 144.838 481.298 144.913C480.25 144.971 479.201 144.847 478.196 144.547C471.241 142.623 462.802 145.198 457.863 150.137C455.308 152.696 453.605 155.98 452.985 159.542C452.365 163.104 452.859 166.77 454.399 170.041C455.938 173.312 458.449 176.029 461.589 177.821C464.729 179.613 468.346 180.393 471.945 180.055C471.604 183.655 472.382 187.274 474.173 190.416C475.965 193.558 478.682 196.07 481.954 197.611C485.227 199.151 488.895 199.644 492.458 199.022C496.021 198.401 499.305 196.695 501.862 194.137C506.802 189.192 509.377 180.759 507.452 173.804C507.153 172.799 507.029 171.749 507.087 170.702C507.162 169.842 507.409 169.444 507.608 169.24L538.246 138.603C538.444 138.404 538.842 138.162 539.702 138.087C540.578 138.006 541.669 138.14 542.804 138.452C549.759 140.376 558.198 137.802 563.132 132.862C565.689 130.305 567.395 127.021 568.016 123.459C568.638 119.897 568.145 116.229 566.606 112.957C565.066 109.685 562.554 106.968 559.413 105.176C556.272 103.384 552.655 102.605 549.055 102.945Z" fill="white"/>
<path d="M154.583 33.3333H191.742C197.68 33.3333 203.49 34.9783 208.542 38.0933L240.835 57.9617C242.108 58.745 243.16 59.8415 243.889 61.1466C244.618 62.4516 245 63.9218 245 65.4167V82.9167C245 89.8786 242.234 96.5554 237.312 101.478C232.389 106.401 225.712 109.167 218.75 109.167H215.833V214.715C227.465 216.278 235.608 221.19 240.275 229.59C242.877 234.292 243.985 239.39 244.498 244.092C245 248.653 245 253.425 245 257.625V257.917C245 260.237 244.078 262.463 242.437 264.104C240.796 265.745 238.571 266.667 236.25 266.667H68.0517C58.2624 266.675 48.7408 263.471 40.948 257.547C33.1553 251.622 27.5219 243.304 24.9125 233.869C22.303 224.434 22.8617 214.403 26.5027 205.316C30.1437 196.229 36.6659 188.588 45.0683 183.565C47.0594 182.371 49.4435 182.016 51.6959 182.58C53.9484 183.143 55.8848 184.578 57.0792 186.569C58.2735 188.56 58.628 190.944 58.0646 193.197C57.5012 195.449 56.0661 197.386 54.075 198.58C48.9588 201.635 44.9867 206.285 42.7684 211.816C40.5501 217.347 40.2082 223.453 41.7952 229.197C43.3822 234.941 46.8104 240.005 51.5535 243.613C56.2966 247.22 62.0926 249.171 68.0517 249.167C71.7733 249.167 74.0833 248.198 75.6233 247.113C77.245 245.97 78.5167 244.337 79.485 242.365C80.7077 239.841 81.4476 237.111 81.6667 234.315V233.907L81.7133 232.238C82.0623 223.668 83.0764 215.137 84.7467 206.723C87.78 191.662 94.045 172.097 107.52 158.435C117.413 148.402 122.792 133.713 125.568 119.188C128.333 104.85 128.333 91.76 128.333 85.8333V59.5833C128.333 52.6214 131.099 45.9446 136.022 41.0218C140.945 36.099 147.621 33.3333 154.583 33.3333ZM99.1667 234.887V234.957L99.155 235.073L99.1317 235.4C99.0202 236.888 98.8255 238.368 98.5483 239.833C98.0933 242.318 97.2417 245.667 95.6317 249.167H180.215C179.165 243.403 176.248 237.43 168.397 233.767C166.606 232.985 164.712 232.467 162.773 232.227C160.063 231.808 157.326 231.594 154.583 231.585L151.282 231.632L149.637 231.655H148.937C147.766 231.714 146.595 231.536 145.494 231.134C144.394 230.732 143.385 230.112 142.528 229.312C141.671 228.512 140.984 227.548 140.507 226.478C140.029 225.407 139.772 224.251 139.75 223.079C139.728 221.907 139.942 220.743 140.379 219.655C140.816 218.568 141.467 217.579 142.293 216.747C143.12 215.916 144.105 215.259 145.19 214.816C146.275 214.373 147.438 214.152 148.61 214.167L149.333 214.155L151.002 214.132L154.583 214.085C157.325 214.085 160.358 214.272 163.333 214.633V187.952C163.333 185.631 164.255 183.405 165.896 181.764C167.537 180.124 169.763 179.202 172.083 179.202C174.404 179.202 176.63 180.124 178.271 181.764C179.911 183.405 180.833 185.631 180.833 187.952V220.665C193.258 228.622 196.863 240.533 197.902 249.167H227.348C227.296 248.115 227.214 247.064 227.103 246.017C226.718 242.505 226.007 239.95 224.968 238.083C223.452 235.353 219.917 231.667 207.083 231.667C204.763 231.667 202.537 230.745 200.896 229.104C199.255 227.463 198.333 225.237 198.333 222.917V100.417C198.333 98.096 199.255 95.8704 200.896 94.2295C202.537 92.5885 204.763 91.6667 207.083 91.6667H218.75C221.071 91.6667 223.296 90.7448 224.937 89.1039C226.578 87.4629 227.5 85.2373 227.5 82.9167V70.3167L199.372 52.9917C197.077 51.5796 194.436 50.8324 191.742 50.8333H154.572C152.253 50.8364 150.03 51.7597 148.392 53.4003C146.754 55.0409 145.833 57.2647 145.833 59.5833V85.6233C145.9 87.9818 146.741 90.2528 148.225 92.0867C149.403 93.4167 151.258 94.5833 154.583 94.5833C157.932 94.5833 159.868 93.405 161.07 92.0283C162.61 90.1118 163.413 87.7073 163.333 85.25C163.333 82.9294 164.255 80.7038 165.896 79.0628C167.537 77.4219 169.763 76.5 172.083 76.5C174.404 76.5 176.63 77.4219 178.271 79.0628C179.911 80.7038 180.833 82.9294 180.833 85.25C180.833 91.7133 178.768 98.375 174.23 103.555C169.563 108.887 162.75 112.083 154.583 112.083C151.175 112.112 147.792 111.503 144.608 110.287C144.148 114.372 143.533 118.439 142.765 122.478C139.708 138.415 133.42 157.105 119.98 170.732C110.122 180.718 104.72 196.165 101.908 210.165C100.341 218.088 99.4241 226.126 99.1667 234.198V234.887Z" fill="white"/>
</svg>
